PathFileType	4	(X/Y/Z)	/Users/niels/Desktop/University/Third Semester/Perception and Action/Exam/Gymnastics Motion Tracking/Code for Gym Tracking/Analyzed Data/Webcam_Backflip/id15_2_trajectory_Sports2D/id15_2_trajectory_Sports2D_px_person00.trc
DataRate	CameraRate	NumFrames	NumMarkers	Units	OrigDataRate	OrigDataStartFrame	OrigNumFrames
29.714285714285715	29.714285714285715	8	22	m	29.714285714285715	13	105
Frame#	Time	Hip			RHip			RKnee			RAnkle			RBigToe			RSmallToe			RHeel			LHip			LKnee			LAnkle			LBigToe			LSmallToe			LHeel			Neck			Head			Nose			RShoulder			RElbow			RWrist			LShoulder			LElbow			LWrist		
		X1	Y1	Z1	X2	Y2	Z2	X3	Y3	Z3	X4	Y4	Z4	X5	Y5	Z5	X6	Y6	Z6	X7	Y7	Z7	X8	Y8	Z8	X9	Y9	Z9	X10	Y10	Z10	X11	Y11	Z11	X12	Y12	Z12	X13	Y13	Z13	X14	Y14	Z14	X15	Y15	Z15	X16	Y16	Z16	X17	Y17	Z17	X18	Y18	Z18	X19	Y19	Z19	X20	Y20	Z20	X21	Y21	Z21	X22	Y22	Z22
13	0.4375	0.8798562013295315	-0.6842622337801584	0.0	0.8722673526699122	-0.6824353473187201	0.0	0.9409136043372708	-0.7911724505690937	0.0	0.8980881032737706	-0.9140946452980048	0.0	0.9471963646999811	-0.9392949662306834	0.0	0.935627857800124	-0.9433984943149193	0.0	0.8849485913406084	-0.9323042888511249	0.0	0.8937728706384821	-0.6868327871271757	0.0	0.9464907811081021	-0.791253583679301	0.0	0.9020731805235879	-0.9042640247759876	0.0	0.948571863510759	-0.9316099774141072	0.0	0.9437184229652137	-0.9280586834263175	0.0	0.885899356556761	-0.9248943366653036	0.0	0.987542629673889	-0.5724504180173116	0.0	1.0603408613769665	-0.5314858757815681	0.0	1.0437427339290597	-0.5669246646649512	0.0	0.9593840022558991	-0.5652770549894516	0.0	0.8859079004206379	-0.5644251289915685	0.0	0.8476974799279513	-0.5581869817062752	0.0	0.978579864998552	-0.5862529556752725	0.0	0.9145830990997316	-0.6048077999692162	0.0	0.8791887652047323	-0.6357695806878308	0.0
14	0.47115384615384615	0.951596763391932	-0.6957602172077328	0.0	0.9453281064240986	-0.6942149364085359	0.0	1.0167629980585056	-0.7970156119548842	0.0	0.972261302992201	-0.9140092162922552	0.0	1.0176098589378662	-0.9382235904836083	0.0	1.0075952164689532	-0.9411998238763261	0.0	0.9598534059448038	-0.931716268372095	0.0	0.9636557290543102	-0.6973951312786609	0.0	1.0160806128926572	-0.7980872903967298	0.0	0.9718515895299674	-0.9057397371509445	0.0	1.0180283011949367	-0.9304490082360996	0.0	1.013255677571175	-0.9272415517162779	0.0	0.9573747906860307	-0.9255543340855198	0.0	1.049504875570466	-0.5838275258082317	0.0	1.1130756734021732	-0.5385423802623792	0.0	1.1010062407094934	-0.5726010939035765	0.0	1.0228379749350305	-0.5825213745440835	0.0	0.9596074926013175	-0.6005451498487362	0.0	0.9334224809032821	-0.6178628276391326	0.0	1.0416939590123144	-0.598134214928769	0.0	0.9878824130936511	-0.6332504965908458	0.0	0.9628773028610002	-0.6787059073987087	0.0
15	0.5048076923076923	1.0567789460697263	-0.7073336263233735	0.0	1.0512829143844085	-0.706238410114318	0.0	1.1215127895799861	-0.8034174280850493	0.0	1.0792005181849487	-0.913701771246775	0.0	1.1194367598732076	-0.9361987801751781	0.0	1.1109393691603542	-0.9383155230205279	0.0	1.0678484687614684	-0.9305391845797555	0.0	1.066924459411683	-0.7081529297798063	0.0	1.115133447806436	-0.8050708457887573	0.0	1.0737722670341692	-0.9063552562910847	0.0	1.119053860334675	-0.9283787503539455	0.0	1.1148570500878197	-0.9252641547326337	0.0	1.0607423364086936	-0.9252207599614024	0.0	1.1370381199565356	-0.5930109263231619	0.0	1.1887390891243057	-0.5437038725952713	0.0	1.1814428553201275	-0.5764315248696331	0.0	1.1128500599701763	-0.59724749924929	0.0	1.0659602363977885	-0.6323119987244746	0.0	1.0530217716935346	-0.6679712982433029	0.0	1.1318509107339119	-0.6079234403919384	0.0	1.091896142986991	-0.6552348231752758	0.0	1.07803373880653	-0.7061747665139324	0.0
16	0.5384615384615384	1.1733947388626353	-0.7161552243925682	0.0	1.1682239572875228	-0.7156856432624561	0.0	1.2335490868339263	-0.8086301218592462	0.0	1.196651191497427	-0.9129914088689531	0.0	1.2313886084309436	-0.9337064625611401	0.0	1.2240612498163534	-0.9353385026227359	0.0	1.1865054095846017	-0.9287538515537456	0.0	1.181848738366748	-0.7164782732833506	0.0	1.2224391632937426	-0.8105369283423485	0.0	1.1863604963287488	-0.9060895441412987	0.0	1.2303144355710218	-0.9259373383726608	0.0	1.2270840099910196	-0.9227027340681838	0.0	1.1742586329089166	-0.9238511795721838	0.0	1.231447017812438	-0.5979509177413465	0.0	1.2701563578949635	-0.5453200800018438	0.0	1.267554929795373	-0.5769382253805069	0.0	1.2111873867698097	-0.6061929323560563	0.0	1.1860481023088174	-0.651327763482045	0.0	1.1872036590612915	-0.6943408847051393	0.0	1.2295079892383118	-0.6130928084659123	0.0	1.2066019738778806	-0.6651776042710952	0.0	1.20341710040286	-0.712432647539391	0.0
17	0.5721153846153846	1.2561738869936163	-0.7185429624350874	0.0	1.251254547465673	-0.7187122813073505	0.0	1.3092829728915718	-0.8106435526165601	0.0	1.2783415708587975	-0.9119152561162519	0.0	1.3091975508136906	-0.9318658507163745	0.0	1.3022573593826803	-0.9333930973063336	0.0	1.2690711919340931	-0.9267294998114322	0.0	1.2632344831269848	-0.7187235383363318	0.0	1.2952998087471677	-0.8124195310838289	0.0	1.2652533591585253	-0.9047736097395768	0.0	1.3077845963474966	-0.9236352455608967	0.0	1.3055975594856422	-0.9200786234222484	0.0	1.2531800188179352	-0.9214279072819016	0.0	1.2935621922004472	-0.5951590359844777	0.0	1.3209205190973423	-0.539518199355402	0.0	1.3226101684415321	-0.5705377471654369	0.0	1.2787615261521927	-0.6050198350272349	0.0	1.278352786827597	-0.6497758959211066	0.0	1.2929669048082435	-0.6868503823450507	0.0	1.29401920095064	-0.6097478873412729	0.0	1.2897736913125597	-0.6579803006351705	0.0	1.2957854617433797	-0.6924668334100351	0.0
18	0.6057692307692307	1.2620456203418868	-0.7113062023953127	0.0	1.2576906202380767	-0.711904635152489	0.0	1.3073578311786125	-0.8077413730082105	0.0	1.2801123700112433	-0.910280013475488	0.0	1.3105707578401227	-0.9315413415735254	0.0	1.302890841904172	-0.9332302723353366	0.0	1.270935959338884	-0.924596331291929	0.0	1.26787934623239	-0.7116435638925753	0.0	1.2934846197895935	-0.8088287362911358	0.0	1.2682099933817688	-0.9018880105807442	0.0	1.3095879611271195	-0.9215479992016776	0.0	1.3081886453842932	-0.9174036432790025	0.0	1.254986468596622	-0.9176634001846341	0.0	1.2859108807749817	-0.5812839426562085	0.0	1.3064197143538454	-0.522294122224947	0.0	1.3116157736982361	-0.5534638134361726	0.0	1.2775087387589457	-0.5900829408661388	0.0	1.3012420884387244	-0.6236425659940814	0.0	1.32620742141112	-0.6437341530853341	0.0	1.2868524271822135	-0.5944038869162487	0.0	1.300874106915223	-0.6310079317101521	0.0	1.3139064727013672	-0.6450074432635998	0.0
19	0.6394230769230769	1.191579870744991	-0.6940947066567693	0.0	1.1881503145404968	-0.6948512868337903	0.0	1.2286097898951787	-0.7991377289531684	0.0	1.202850581948914	-0.9068934725990586	0.0	1.2361145151980697	-0.9319512340060936	0.0	1.2267173423093138	-0.9338474988103316	0.0	1.1931055846098666	-0.9212667996585342	0.0	1.196346343716222	-0.6948333597196065	0.0	1.2179280859896713	-0.7990944220709773	0.0	1.195868949364473	-0.8965698257219431	0.0	1.236377324636354	-0.9188918313530652	0.0	1.2353923961602795	-0.9138754218531956	0.0	1.180726261112391	-0.9116916531251369	0.0	1.2098847871465233	-0.5565076002505432	0.0	1.228980599026002	-0.49387964321907424	0.0	1.2364016174441577	-0.5256961468342771	0.0	1.2073507732843234	-0.5620022952105639	0.0	1.2508541121079035	-0.5762270352454986	0.0	1.2810489745598779	-0.5739283490848865	0.0	1.2099825117542589	-0.5675076886927781	0.0	1.2402516887682802	-0.5873933936657983	0.0	1.2576923234806365	-0.576575842163765	0.0
20	0.673076923076923	1.0883956483834991	-0.6697531308435121	0.0	1.0859855420561455	-0.6704663314708462	0.0	1.1161596073131175	-0.7852213417310763	0.0	1.0920793382880547	-0.8998636023742901	0.0	1.129005424301762	-0.9306930913106917	0.0	1.1175567673711762	-0.9326268901000073	0.0	1.0816891091314247	-0.9146789535251032	0.0	1.0924510123124636	-0.6710430844611407	0.0	1.110455599845088	-0.784015593510612	0.0	1.0913242031645265	-0.8878242695982126	0.0	1.1308918034681223	-0.9142175629038425	0.0	1.1300806867773425	-0.9081730125213546	0.0	1.0744651980999598	-0.9022730610027597	0.0	1.1055211979136987	-0.5250136072078607	0.0	1.1273070886240646	-0.4592426875961392	0.0	1.135277098073563	-0.49160458054635686	0.0	1.1065390198425098	-0.5261186858890706	0.0	1.1624960636454822	-0.5174946318423318	0.0	1.1923364358276594	-0.49380506443720534	0.0	1.105162028974758	-0.5339707180290244	0.0	1.1478681792889904	-0.5364663445069136	0.0	1.1665882274412502	-0.5007568804351593	0.0
